<?xml version="1.0" encoding="UTF-8"?>
<svg xmlns="http://www.w3.org/2000/svg" viewBox="0 0 360 324" width="360" height="324">
<path d="M315.47 64.3C315.5 68.7 315.53 73.1 315.55 77.5C313.32 85.77 312.12 93.56 308.76 101.55C308.17 102.95 306.92 104.12 306.28 105.49C299.21 120.62 286.26 134.19 272.41 143.2C268.89 145.49 257.55 154.38 254.05 153.75C254.66 148.9 256.25 144.21 257.87 139.66C263.37 124.19 270.29 109.33 275.08 93.79C275.43 92.66 276.42 91.71 276.8 90.62C278.83 84.74 281.19 77.98 281.81 71.75C278.94 71.83 271.22 83.01 269.56 85.83C267.54 89.23 264.32 92.06 262.2 95.41C257.11 103.46 251.14 111.08 245.48 118.71C243.81 120.96 238.49 129.23 236.25 129.83C235.1 124.14 238.17 115 239.74 109.58C246.35 86.8 261.93 68.74 276.53 50.29C280.31 45.51 291.43 31.45 296.25 28.85C305.15 32.36 311.31 47.43 313.82 55.83C314.62 58.49 314.25 61.84 315.47 64.3ZM313.75 110.2C315.16 115.08 313.16 120.22 312.19 124.79C309.18 138.97 303.69 156.61 288.53 162.74C280.66 165.92 272.1 164.73 264.66 161.14C262.57 160.13 257.82 158.93 257.25 156.65C260.04 154.92 267.02 153.63 270.67 151.88C277.9 148.41 283.47 143.11 289.82 138.59C295.15 134.79 304.17 122.63 308.4 117.14C310.12 114.91 311.38 111.69 313.75 110.2Z" fill="#a3cc3a" fill-rule="evenodd" stroke="#a3cc3a" stroke-width="0.25" stroke-linejoin="round"/>
<path d="M149.5 281.12C148.58 281 147.66 280.87 146.75 280.75C146.9 280.51 147.06 280.27 147.21 280.02C160.04 271.53 173.69 257.56 183.19 245.44C190.07 236.65 198.13 228.54 203.36 218.6C209.76 206.41 214.42 194.93 206.73 182C202.26 174.49 193.75 169.84 186.5 165.72C174.27 158.79 161.1 153.23 150.35 143.75C156.07 143.17 169.84 148.65 175.93 150.77C178.71 151.74 182.88 152.27 185 154.25C188.04 153.83 191.91 155.95 194.92 156.78C200.03 158.18 207.42 159.16 212.68 157.83C226.83 154.26 246.6 130.59 254.65 118.39C257.57 113.96 260.6 108.74 264 104.75C265.12 105.97 260.19 116.68 259.25 118.96C254.68 130.18 249.22 141.65 246.23 153.39C245.5 156.26 244.43 165.58 243 167.25C244.87 169.48 242.66 172.53 243.16 175.25C244.07 180.24 244.89 185.99 245.09 191.25C245.17 193.41 246.51 194.91 245 196.75C246.53 198.56 246.13 201.87 246.14 204.25C246.18 210.37 246.43 216.58 245.15 222.34C244.46 225.48 244.71 229.07 243.92 232.25C239.12 251.58 224.07 276.6 209.75 290.65C209.65 290.16 209.18 289.77 209.15 289.27C209.1 288.23 210.49 286.25 210.87 285.2C212.46 280.77 214.27 276.59 215.74 272.03C219.36 260.81 222.3 249.17 223.75 237.49C224.39 232.28 225.99 226.51 225.25 221.23C222.69 221.66 220.49 225.11 218.71 226.98C213.1 232.88 207.79 239.1 202.52 245.28C189.79 260.2 169.71 279.03 149.5 281.12Z" fill="#ee7e1a" fill-rule="evenodd" stroke="#ee7e1a" stroke-width="0.25" stroke-linejoin="round"/>
<path d="M215.75 67.43C213.47 66.45 211.75 64.43 209.55 63.26C206.3 61.53 202.97 59.71 199.62 58.19C182.87 50.59 163.35 46.75 144.75 48.05C143.18 48.16 141.81 48.92 140.23 49.04C104.2 51.66 70.02 75.14 51.94 106.5C45.55 117.6 41.39 129.9 38.14 142.32C37.22 145.84 37.72 149.76 36.86 153.25C35.04 160.66 34.7 172.56 36.04 180.24C36.26 181.47 36.95 182.45 37.01 183.77C37.16 186.97 37.33 190.16 38.07 193.23C44.09 218.07 55.97 240.43 75.05 257.65C79.86 261.99 84.86 266.78 90.5 270.05C96.5 273.53 102.79 277.38 109.31 279.72C112.31 280.79 117.19 281.68 119.5 283.75C117.16 284.95 114.72 283.44 112.25 283.11C103.69 281.95 95.28 277.86 87.61 274.19C63.12 262.48 44.13 242.51 32.04 218.5C29.4 213.26 26.67 208.02 25.14 202.25C21.37 188 17.05 172.35 18.42 157.25C18.85 152.61 19.14 144.5 20.18 140.25C22.4 131.1 24.92 122.16 28.12 113.28C34.94 94.43 54.46 70.37 71.47 59.29C79.93 53.78 88.84 48.56 98.29 45.13C102.12 43.74 106.35 43.18 110.16 41.8C115.33 39.92 120.74 39.82 126.24 38.94C146.93 35.62 175.64 40.39 193.68 51.09C199.49 54.53 205.12 57.59 210.48 61.74C212.64 63.42 216.07 64.49 215.75 67.43Z" fill="#08a7e7" fill-rule="evenodd" stroke="#08a7e7" stroke-width="0.25" stroke-linejoin="round"/>
<path d="M151 62.25C157.33 62.25 163.67 62.24 170 62.23C183.58 64.54 200.73 68.11 212.33 75.9C214.84 77.58 224.51 82.7 224.75 85.06C197.39 70.21 168.1 66.65 137.85 76.17C136.1 76.71 134.45 78.19 132.68 78.87C127.14 80.99 122.23 83.58 117.02 86.33C110.37 89.84 102.08 97.7 96.49 103.25C94.37 105.35 93.13 108.11 90.6 109.84C87.9 111.7 84.85 112.94 81.97 114.29C78.25 116.02 69.83 121.91 65.75 120.5C65.76 118.49 67.82 116.39 68.75 114.59C71.42 109.45 75.26 105.23 78.79 100.56C90.92 84.49 112.66 71.55 131.26 65.96C137.58 64.06 144.61 64.05 151 62.25ZM61.75 131.8C63.29 132.52 64.11 134.26 65.86 134.79C69.53 135.89 72.26 134.02 74.22 138.25C73.26 143.74 71.04 149.14 69.19 154.36C67.98 157.77 68.87 161.81 68.14 165.25C67.93 166.22 67.26 166.76 67.14 167.76C66.66 171.78 66.36 186.01 67.21 189.65C67.39 190.42 68 190.91 68.15 191.74C68.78 195.18 68.1 199.22 69.26 202.58C71.09 207.91 72 213.96 74.23 219.11C79.88 232.19 87.2 244.21 97.22 254.52C99.17 256.52 100.88 258.87 103.09 260.63C108.55 264.99 113.99 268.77 119.97 272.32C121.65 273.31 123.2 274.88 124.97 275.71C129.28 277.71 135.61 278.85 139.29 281.75C135.35 282.62 132.75 280.52 129.21 279.58C122.76 277.86 117.72 274.89 111.59 272.22C89.28 262.5 67.34 236.42 59.24 213.58C56.46 205.74 54.57 197.42 53.05 189.32C52.41 185.9 53.19 182.4 52.11 179.18C50.7 174.98 52.23 170.2 52.81 166.22C53.23 163.31 52.47 160.13 53.03 157.25C54.05 151.94 54.9 146.3 56.89 141.14C58.03 138.18 58.14 132.25 61.75 131.8ZM147.21 280.02C147.06 280.27 146.9 280.51 146.75 280.75C147.66 280.87 148.58 281 149.5 281.12C148.33 281.33 147.17 281.54 146 281.75C144.88 284.02 142.15 283.17 140.03 282.75C141.35 282.58 142.68 282.42 144 282.25C145.07 281.51 146.14 280.77 147.21 280.02Z" fill="#d5b671" fill-rule="evenodd" stroke="#d5b671" stroke-width="0.25" stroke-linejoin="round"/>
<path d="M330.75 169.37C331.01 172.34 330.25 176.09 329.21 178.75C327.84 182.23 327.27 185.43 324.89 188.63C320.22 194.94 312.56 198.56 305.33 200.67C303.94 201.08 301.98 200.73 300.75 201.21C289.24 205.67 270.47 201.88 259.11 197.75C261.94 194.53 267.69 193.12 271.84 191.96C278.23 190.17 296.1 185.03 300.84 181.25C294.83 180.21 277.74 185.98 270.5 186.95C267.19 187.39 263.57 189.77 260.42 188.25C261.61 187.08 262.81 185.92 264 184.75C264.75 181.54 272.52 176.16 275.75 176C279.01 171.94 286.02 170.86 290.79 169.71C293.83 168.98 297.13 167.74 300.18 167.03C307.75 165.27 324.35 165.2 330.75 169.37ZM316.83 227.75C313.06 231.3 308.73 235.22 303.73 236.85C300.68 237.85 296.44 237.16 293.75 238.83C290.98 237.08 285.61 237.85 282.17 236.73C273.96 234.05 259.78 226.04 255.47 218.25C258.85 217.34 263.75 218.66 266.88 219.76C268.44 220.31 270.59 219.91 272.25 220.23C275.71 220.88 279.24 221.49 282.7 222.19C284.91 222.65 287.69 223.94 289.79 223.25C289.12 220.57 284.67 219.59 282.25 218.68C274.42 215.74 266.21 213.58 258.37 210.75C261.97 208.44 266.91 208.85 271.25 208.95C282.61 209.22 295.54 213.36 305.27 218.91C308.7 220.86 315.94 223.45 316.83 227.75ZM258.75 231.73C270.12 237.72 274.97 250.37 278.62 261.75C274.02 262.43 263.96 261.94 261.75 257C256.17 255.79 252.05 241.73 251.9 236.75C254.79 236.66 259.16 246.3 264.75 246.1C264.26 241.19 258.11 236.31 258.75 231.73Z" fill="#4eaa46" fill-rule="evenodd" stroke="#4eaa46" stroke-width="0.25" stroke-linejoin="round"/>
<path d="M170 62.23C163.67 62.24 157.33 62.25 151 62.25C157.33 62.25 163.67 62.24 170 62.23ZM315.47 64.3C316.58 65.73 316.8 76.02 315.55 77.5C315.53 73.1 315.5 68.7 315.47 64.3ZM116.65 103.25C117.43 104.75 118.21 106.25 118.99 107.75C118.55 109.84 117.87 111.39 116.13 112.75C115.51 122.06 115.77 131.91 115.89 141.25C115.97 146.73 117.44 154.01 115.25 159.03C110.26 158.83 112.02 150.89 112.04 147.25C112.12 137.11 113.2 122.88 111.88 113.25C111.5 110.44 109.23 109.18 109.7 105.75C112.04 103.31 113.13 102.71 116.65 103.25ZM96.25 112.2C104.95 117.71 100.54 124.4 110.05 126.25C110.05 129.75 110.05 133.25 110.05 136.75C108.22 138.68 106.05 138.51 103.75 139.08C102.5 138.36 101.25 137.63 100 136.91C99 136.91 98 136.91 97 136.91C95.75 137.44 94.5 137.97 93.25 138.5C87.61 134.57 89.77 137.68 84.25 136.76C83.42 135.74 82.58 134.71 81.75 133.68C78.85 133.85 75.42 135.12 74.75 131.28C72.25 131.28 69.75 131.28 67.25 131.28C65.52 128.84 63.78 128.15 60.75 128.05C59.28 126.62 57.82 125.18 56.35 123.75C56.76 123.31 57.08 122.68 57.71 122.54C58.74 122.31 59.96 123.55 60.84 123.74C63.1 124.21 67.89 124.18 70.16 123.66C79.55 121.52 87.17 115.12 96.25 112.2ZM171.56 122.75C172.31 126.65 165.21 127.95 163.04 129.53C161.82 130.42 161.6 131.42 159.75 131.56C157.68 131.72 156.07 130.58 154.25 130.08C153.42 131.61 153.07 132.73 151.75 134.26C150.42 133.98 149.08 133.71 147.75 133.43C146.25 134.62 144.75 135.81 143.25 137C141.58 136.7 139.92 136.41 138.25 136.11C137.08 136.99 135.92 137.88 134.75 138.77C132.37 137.47 130.65 137.13 128 136.75C127.25 137.55 126.5 138.35 125.75 139.15C123.75 138.8 121.75 138.46 119.75 138.11C118.05 134.96 118.57 129.77 119.04 126.25C120.07 126.08 121.54 126.19 122.47 125.65C123.78 124.87 126.66 117.68 126.85 116.25C127.98 115.12 129.12 113.99 130.25 112.86C131.15 112.77 132.35 112.12 133.23 112.2C136.21 112.49 139.01 115.17 141.54 116.51C145.79 118.75 150.72 121.53 155.25 122.94C158.28 123.88 163.41 124.35 166.75 123.86C168.58 123.59 169.69 122.36 171.56 122.75ZM103.75 146.9C104.86 148.02 105.97 149.13 107.08 150.25C103.95 155.08 101.99 151.05 98.64 150.24C95.92 149.59 91.84 150.21 89.03 150.25C86.31 154.48 90.8 157.5 94.33 158.84C100.99 161.37 108.18 160.07 115.23 161.35C122.49 162.67 125.46 164.9 131.11 169.25C131.35 171.8 132.01 173.08 130.94 175.69C130.17 177.6 122.65 184.41 120.74 184.11C119.86 183.98 119.52 182.9 119.13 182.25C124.23 178.23 129.74 177.3 125.25 169.46C123.53 168.51 121.99 166.98 120 166.44C118.66 166.08 117.13 166.48 115.77 166.27C114.52 166.08 113.54 165.24 112.25 165.09C108.68 164.68 105.29 165.19 101.73 164.26C98.27 163.37 94.57 160.37 91.25 160.14C89.75 157.25 86.72 155.77 85.01 152.25C85.75 151.12 86.5 149.98 87.25 148.85C89.12 148.83 90.89 147.58 92.74 147.05C95.9 146.15 100.47 146.75 103.75 146.9ZM143.08 150.75C143.08 151.58 143.08 152.42 143.08 153.25C141.68 157.08 134.69 162.16 130.77 162.99C128.75 163.41 127.1 162.58 125.35 161.75C128.47 159.29 130.12 160.35 133.31 158.93C135.71 157.86 138.22 156.36 140.5 154.75C140.25 153.25 139.99 151.75 139.74 150.25C134.45 149.34 129.96 150.67 125.25 152.86C123.8 152.16 122.34 151.45 120.89 150.75C121.74 149.69 123.04 147.7 124.33 147.13C129.47 144.86 138.81 147.87 143.08 150.75ZM100.25 166.43C101.76 166.71 103.28 166.98 104.79 167.25C92.67 181.61 119.36 182.14 123.9 190.97C126.47 195.97 124.35 199.88 120.54 203.25C119.38 204.27 119.41 204.96 117.81 204.75C118.11 202.36 120.71 200.25 121.94 198.1C122.56 197.03 122.09 195.72 122.75 194.5C120.56 192.41 120.03 189.83 117.01 188.27C111.51 185.45 98.03 181.31 96.74 174.27C96.06 170.61 98.67 169.06 100.25 166.43ZM113.75 167.98C114.63 168.42 115.53 168.69 115.93 169.76C116.79 172.09 116.46 178.51 115.57 180.75C114.81 180.78 113.83 181.18 113.2 180.49C111.77 178.95 112.62 169.67 113.75 167.98ZM109.75 188.07C109.43 191.54 105.8 193.04 106.25 197.25C106.86 202.88 114.68 206.12 118.57 208.75C120.18 209.84 121.27 212.57 122.24 214.25C122.26 217.33 120.59 221.31 117.75 222.72C116.9 218.85 121.63 218.07 118.66 212.58C116.22 208.05 108.98 206.49 105.56 200.52C105.09 199.71 104.13 199.26 103.85 198.31C102.64 194.13 104.51 187.37 109.75 188.07ZM114.25 202.95C111.55 199.87 112.59 194.08 113.08 190.25C117.18 189.98 116.56 201.13 115.71 202.23C115.26 202.8 114.81 202.67 114.25 202.95ZM110.52 210.25C111.12 211.89 109.77 212.7 108.83 214C108.83 215.29 108.83 216.58 108.83 217.87C111.87 221 114.9 224.12 117.94 227.25C118.51 229.81 120.95 233.64 117.75 235.33C116.69 233.16 117.77 230.55 116.7 228.46C114.39 223.96 107.28 222.26 106.85 216.75C106.63 213.82 107.1 210.18 110.52 210.25ZM113.75 211.87C115.54 213.97 115.34 216.93 114.81 219.75C112.09 219.03 112.24 213.66 113.75 211.87ZM110.25 229.5C111.99 230.85 111.26 233.42 110.75 235.54C109.47 233.54 109.77 231.71 110.25 229.5ZM114.25 230.97C115.83 232.23 115.85 235.3 114.25 236.5C113.44 234.7 113.48 232.88 114.25 230.97Z" fill="#acb7b3" fill-rule="evenodd" stroke="#acb7b3" stroke-width="0.25" stroke-linejoin="round"/>
<path d="M197.84 112.07C216.19 110.6 225.23 142.28 207.26 146.95C204.84 147.58 202.93 146.74 200.84 145.97C191.53 142.54 188.01 134.04 187.97 124.75C187.95 119.3 191.81 112.56 197.84 112.07Z" fill="#e21d23" fill-rule="evenodd" stroke="#e21d23" stroke-width="0.25" stroke-linejoin="round"/>
</svg>